<?xml version="1.0" encoding="UTF-8" standalone="no"?>
<!-- Created with Inkscape (http://www.inkscape.org/) -->

<svg
   width="180"
   height="90"
   viewBox="0 0 180 90"
   version="1.1"
   id="SVGRoot"
   xmlns="http://www.w3.org/2000/svg"
   xmlns:svg="http://www.w3.org/2000/svg">
  <defs
     id="defs132" />
  <g
     id="layer1">
    <rect
       style="opacity:1;fill:#000000;fill-opacity:1;stroke-width:935.282;paint-order:stroke fill markers"
       id="rect1400"
       width="188.35429"
       height="99.072014"
       x="-3.2777076"
       y="-1.6182461" />
    <path
       style="fill:#ffaaaa;stroke-width:935.282;paint-order:stroke fill markers"
       id="path1186"
       d="m 22.120795,74.924032 c 1.033838,-1.363853 2.413641,-2.42823 3.715239,-3.524292 1.4217,-1.323076 2.925138,-2.551954 4.388326,-3.82744 1.284085,-1.117378 2.785779,-1.880339 4.287734,-2.649366 1.604139,-0.809917 3.316226,-1.270414 5.084269,-1.531807 0.340225,-0.01991 0.679927,-0.05344 1.020676,-0.05974 0.3532,-0.0065 1.41278,0.01539 1.059568,0.02124 -1.805983,0.02991 -3.613183,-0.008 -5.418452,0.05094 -0.355052,0.01159 0.708373,0.05549 1.061804,0.09131 1.041427,0.10554 1.052144,0.121888 2.062037,0.28401 1.803545,0.350223 3.597369,0.745563 5.368895,1.233054 1.514474,0.401042 2.952067,1.027305 4.427383,1.544515 1.426793,0.515127 2.914557,0.748035 4.416938,0.895093 3.358705,0.22348 6.751435,0.150511 10.105126,0.08627 0.361417,-0.0069 1.737221,-0.267033 2.069281,-0.326187 1.195659,-0.245453 2.430986,-0.342126 3.598647,-0.717589 0.681571,-0.219159 0.990795,-0.39662 1.647987,-0.711315 2.111933,-1.100374 4.259084,-2.064915 6.303268,-3.29296 2.383923,-1.636225 4.776787,-3.250477 7.26667,-4.722165 2.193931,-1.249531 4.506129,-2.133303 6.928121,-2.816084 1.278918,-0.298624 2.582468,-0.55612 3.898326,-0.617 0.286706,-0.01326 1.148039,-0.0043 0.861034,-0.0023 -1.923348,0.01356 -3.846713,0.0246 -5.77007,0.0369 1.788588,0.0067 3.427814,0.619162 5.041159,1.321848 1.785017,0.856181 3.671906,1.454766 5.578349,1.970226 1.86978,0.472065 3.78107,0.734131 5.69906,0.905352 0.30183,0.01823 0.60311,0.05235 0.90548,0.05468 2.50765,0.01928 5.01568,0.04409 7.52318,0.01013 0.33628,-0.0046 0.66757,-0.08223 1.00107,-0.125581 1.11511,-0.144953 2.19759,-0.36648 3.29538,-0.60836 2.45064,-0.627356 4.79108,-1.594749 7.0851,-2.645861 2.61636,-1.214546 5.0619,-2.723642 7.45152,-4.32911 2.57689,-1.759574 5.25952,-3.346929 8.01781,-4.802311 2.81065,-1.477771 5.67482,-2.847013 8.3862,-4.504151 2.03139,-1.237479 3.97773,-2.606798 5.90103,-4.004443 1.52856,-1.214457 3.23305,-2.166672 4.91375,-3.147983 1.10859,-0.654183 2.34191,-0.957112 3.5738,-1.268397 1.10998,-0.243001 2.22541,-0.430077 3.35733,-0.530886 2.63338,0.12828 0.18507,-4e-6 -5.62272,0.03637 -0.19334,0.0012 0.38641,0.01489 0.5795,0.02471 0.46667,0.02372 0.9261,0.06303 1.38884,0.12622 3.47988,0.465278 7.01616,0.284532 10.51699,0.106222 0,0 -6.70168,-1.028987 -6.70168,-1.028987 v 0 c -2.3631,0.103065 -6.26631,0.09184 4.57551,0.06464 0.0704,-1.77e-4 -0.50474,-0.01387 -1.08193,-0.07254 -0.1467,-0.01491 -0.29273,-0.03569 -0.4391,-0.05354 -3.30876,-0.530418 -6.72066,-0.302163 -10.04801,-0.205848 -1.12122,0.157757 -2.23415,0.371957 -3.33569,0.633894 -1.23059,0.337085 -2.4154,0.821479 -3.5119,1.479537 -1.5769,1.03532 -3.12432,2.113084 -4.65316,3.218029 -1.90899,1.341124 -3.76927,2.755249 -5.76204,3.972701 -2.63852,1.624267 -5.38252,3.062994 -8.13336,4.486471 -2.8314,1.45143 -5.59586,3.028315 -8.20837,4.850372 -2.39656,1.585037 -4.87381,3.034897 -7.49743,4.217099 -2.32562,1.012928 -4.70908,1.925244 -7.18643,2.494214 -1.12128,0.22195 -2.23764,0.423188 -3.37798,0.521524 -0.3404,0.02935 -1.36469,0.05655 -1.02308,0.06243 9.15089,0.157419 6.93437,0.07395 4.69501,-0.02258 -1.92189,-0.123551 -3.8337,-0.341345 -5.71176,-0.783349 -1.89411,-0.478124 -3.7932,-0.991587 -5.555,-1.855322 -1.58835,-0.773669 -3.226776,-1.49828 -5.020453,-1.581632 -4.502226,-0.02819 -7.946119,-0.45957 -12.066967,0.763604 -2.374343,0.741675 -4.672428,1.723276 -6.814997,2.994449 -2.456131,1.515416 -4.796852,3.202596 -7.258101,4.708503 -2.127451,1.163565 -4.340607,2.163734 -6.536138,3.191015 -1.663956,0.63244 -3.39227,1.018861 -5.153531,1.276493 -2.675204,0.368638 -6.165501,0.239806 3.475082,0.247013 0.294839,2.2e-4 -0.589619,-0.0089 -0.884375,-0.01583 -0.279282,-0.0066 -0.558554,-0.01418 -0.837712,-0.0248 -0.270052,-0.01028 -0.539905,-0.02526 -0.809858,-0.03789 -1.469105,-0.104216 -2.921344,-0.283599 -4.328554,-0.74173 -0.46125,-0.151697 -0.92703,-0.289823 -1.385548,-0.449588 C 53.465051,64.89896 52.454986,64.409422 51.363883,64.148897 49.5623,63.635783 47.73851,63.223287 45.901507,62.857698 41.673001,62.111044 37.332868,62.07893 33.06131,62.464052 c -1.814619,0.322069 -3.516657,0.835905 -5.139624,1.73141 -1.556873,0.790099 -3.095696,1.609988 -4.385805,2.810059 -1.414011,1.275825 -2.780561,2.604225 -4.242735,3.825507 -1.398596,1.196507 -2.788534,2.40518 -4.240811,3.536705 0,0 7.06846,0.556299 7.06846,0.556299 z" />
    <path
       style="fill:#008080;stroke-width:935.282;paint-order:stroke fill markers"
       id="path1286"
       d="m 14.307022,15.094951 c 6.402037,0.198629 12.804751,-0.204834 19.205808,-0.276953 -1.085981,0.01026 -2.176555,-0.06954 -3.257943,0.03077 -0.6774,0.06283 1.360293,0.03967 2.039265,0.08228 1.123465,0.0705 2.359347,0.194125 3.470132,0.406351 1.244804,0.237832 1.642636,0.401968 2.829804,0.779577 2.717161,1.056804 5.172946,2.659739 7.620509,4.220233 2.158168,1.336326 4.026222,3.052012 5.77589,4.875755 1.394386,1.473563 2.710247,3.016337 3.974156,4.602321 1.294435,1.571906 2.545704,3.178087 3.8134,4.771366 1.19925,1.525012 2.70547,2.715439 4.372115,3.684603 1.901089,1.018435 4.012022,1.481807 6.092424,1.973037 2.119409,0.454138 4.137956,1.24077 6.161516,1.997929 1.565336,0.638296 3.171863,1.177979 4.709127,1.884534 1.022023,0.46974 1.245076,0.615004 2.23421,1.157455 2.175621,1.235627 4.224467,2.676993 6.307332,4.05929 1.738067,1.134819 3.412708,2.346889 5.001847,3.681358 1.38745,1.136212 2.758287,2.288378 4.213075,3.33826 1.343111,0.970935 2.722731,1.959755 4.298661,2.522098 0.37448,0.133626 0.76281,0.224712 1.14421,0.337069 0.39944,0.07457 0.79579,0.168258 1.19833,0.223712 0.75682,0.104259 1.66648,0.13914 2.4296,0.139884 3.3674,0.0033 6.62743,0.01042 9.95809,-0.100049 3.76905,0.0067 -1.79941,-0.0046 -3.68172,0.01034 -0.48552,0.0039 0.97098,0.0124 1.45646,0.01948 1.41517,0.02065 2.83026,0.04596 4.24541,0.06793 2.09246,0.0273 4.21727,0.01612 6.25384,0.569941 0.41763,0.113569 0.8224,0.27002 1.2336,0.405031 2.46981,1.02418 4.54932,2.750319 6.55818,4.476336 1.99993,1.676365 3.71039,3.649421 5.57147,5.46916 1.60816,1.610601 3.40129,3.01667 5.27406,4.303487 2.06822,1.310942 4.03727,1.708115 6.43663,1.866815 4.3668,0.302775 8.70265,-0.122535 13.05477,-0.288668 0.27798,-0.0082 0.55597,-0.01638 0.83396,-0.02457 -1.97669,0.01331 -3.95385,-0.0048 -5.93008,0.03992 -0.23618,0.0053 0.47102,0.04163 0.70438,0.0784 0.56043,0.08829 1.09272,0.259494 1.62673,0.443711 0.47553,0.185848 0.94757,0.37743 1.40186,0.610557 0,0 7.01601,-0.819452 7.01601,-0.819452 v 0 c -0.53362,-0.191824 -1.03226,-0.468544 -1.57912,-0.629061 -3.38146,-1.306764 -7.0354,-0.99089 -10.6373,-0.707967 -2.59914,0.142792 -11.15709,0.528972 -0.0347,0.306619 -0.74133,-0.0229 -1.47037,-0.02656 -2.20744,-0.124575 -1.4737,-0.195964 -2.90487,-0.65652 -4.19933,-1.388318 -0.58457,-0.385429 -1.31607,-0.853747 -1.87411,-1.27776 -1.19028,-0.904411 -2.30657,-1.914932 -3.41979,-2.909873 -1.9137,-1.819924 -3.73315,-3.735895 -5.71289,-5.486753 -1.99434,-1.798119 -4.06421,-3.576578 -6.51646,-4.722592 -0.40921,-0.15952 -0.80968,-0.343593 -1.22763,-0.478561 -2.04483,-0.660332 -4.20144,-0.708082 -6.32916,-0.700841 -4.91306,-0.05196 -9.82556,-0.183536 -14.73957,-0.104103 -2.29596,0.0759 -7.03761,0.03261 2.85838,0.08996 0.40251,0.0023 -0.80509,0.01138 -1.20753,0.0038 -0.39985,-0.0075 -0.80037,-0.0141 -1.19874,-0.04921 -0.38908,-0.0343 -0.77396,-0.105869 -1.16094,-0.158803 -0.35654,-0.0899 -0.71851,-0.160507 -1.06962,-0.269711 -1.55954,-0.485059 -2.92082,-1.412004 -4.22113,-2.372375 -1.45416,-1.034056 -2.7971,-2.198044 -4.20101,-3.29814 -1.674214,-1.32362 -3.360576,-2.62101 -5.188924,-3.731119 C 93.977333,47.333097 91.921643,45.874455 89.746975,44.605174 88.812629,44.06315 88.486938,43.849687 87.51382,43.382647 85.996469,42.654408 84.387129,42.141799 82.848578,41.46202 80.845466,40.675393 78.850992,39.825012 76.740464,39.366228 74.703359,38.903264 72.633447,38.502992 70.74591,37.566713 69.085426,36.690005 67.573657,35.584087 66.361155,34.13455 c -1.309136,-1.556932 -2.512913,-3.19501 -3.80002,-4.768453 -1.31081,-1.598518 -2.606351,-3.215692 -4.094443,-4.656691 -1.829634,-1.824221 -3.702262,-3.644251 -5.906656,-5.016367 -2.511556,-1.542787 -4.998461,-3.155994 -7.691702,-4.369363 -1.192643,-0.392574 -1.742192,-0.612203 -2.994625,-0.860193 -4.57071,-0.905032 -9.341868,-0.304177 -13.934107,-0.519228 -6.644343,0.134884 1.714756,-0.04271 -5.318293,0.133566 -0.953445,0.0239 -3.809383,-0.03813 -2.860622,0.05925 1.205744,0.123752 2.4241,0.02204 3.636177,0.02035 0.477773,-6.68e-4 -0.955671,-0.0061 -1.43313,-0.02343 -0.239744,-0.0087 -0.478418,-0.03645 -0.717627,-0.05467 0,0 -6.939085,1.015629 -6.939085,1.015629 z" />
  </g>
</svg>
