<?xml version="1.0" encoding="UTF-8" standalone="no"?>
<!-- Created with Inkscape (http://www.inkscape.org/) -->

<svg
   width="204.89578mm"
   height="108.72232mm"
   viewBox="0 0 204.89578 108.72232"
   version="1.1"
   id="svg5"
   inkscape:export-filename="../7f6d30e7/s.svg"
   inkscape:export-xdpi="17.104378"
   inkscape:export-ydpi="17.104378"
   sodipodi:docname="s.svg"
   xmlns:inkscape="http://www.inkscape.org/namespaces/inkscape"
   xmlns:sodipodi="http://sodipodi.sourceforge.net/DTD/sodipodi-0.dtd"
   xmlns:xlink="http://www.w3.org/1999/xlink"
   xmlns="http://www.w3.org/2000/svg"
   xmlns:svg="http://www.w3.org/2000/svg">
  <sodipodi:namedview
     id="namedview7"
     pagecolor="#ffffff"
     bordercolor="#cccccc"
     borderopacity="1"
     inkscape:showpageshadow="0"
     inkscape:pageopacity="1"
     inkscape:pagecheckerboard="0"
     inkscape:deskcolor="#d1d1d1"
     inkscape:document-units="mm"
     showgrid="false" />
  <defs
     id="defs2">
    <linearGradient
       inkscape:collect="always"
       id="linearGradient3774">
      <stop
         style="stop-color:#000000;stop-opacity:1;"
         offset="0"
         id="stop3770" />
      <stop
         style="stop-color:#000000;stop-opacity:0;"
         offset="1"
         id="stop3772" />
    </linearGradient>
    <linearGradient
       inkscape:collect="always"
       xlink:href="#linearGradient3774"
       id="linearGradient3776"
       x1="66.469849"
       y1="67.044029"
       x2="301.57791"
       y2="10.926286"
       gradientUnits="userSpaceOnUse" />
  </defs>
  <g
     inkscape:groupmode="layer"
     id="layer2"
     inkscape:label="Layer 2"
     transform="translate(1.321545,0.9037283)">
    <rect
       style="opacity:1;fill:url(#linearGradient3776);fill-opacity:1;stroke-width:247.46;stroke-dasharray:none;paint-order:stroke fill markers"
       id="rect3220"
       width="204.8958"
       height="108.72231"
       x="-1.321545"
       y="-0.90372831" />
  </g>
  <g
     inkscape:label="Layer 1"
     inkscape:groupmode="layer"
     id="layer1"
     transform="translate(-5.090916,-91.598848)">
    <path
       style="fill:#4fffff;fill-opacity:0.508554;stroke-width:0.665001;paint-order:markers fill stroke"
       id="path4053"
       d="m 29.699063,110.35539 c 2.39329,1.46246 4.998912,2.53109 7.577102,3.61666 3.070619,1.25038 5.939456,2.93064 8.866994,4.47444 2.715337,1.34591 5.123479,3.18825 7.515863,5.02609 2.463699,1.8659 4.921596,3.73398 7.270839,5.7431 2.44094,2.10992 4.825193,4.28505 7.203443,6.46519 1.977086,1.91762 4.066286,3.70102 6.229199,5.40313 1.691301,1.28923 3.447246,2.48329 5.214998,3.66379 1.90136,1.37698 3.858292,2.67339 5.816656,3.96684 1.879592,1.29155 3.785073,2.53204 5.775843,3.64519 2.05105,1.14899 4.251415,1.97467 6.457445,2.7678 2.349058,0.87943 4.795205,1.41142 7.253625,1.87269 3.33293,0.58545 6.74514,0.41265 10.07968,-0.0659 2.80246,-0.48309 5.60039,-0.99013 8.38812,-1.55226 2.80484,-0.58039 5.6603,-0.78269 8.51577,-0.89285 2.64315,-0.11634 4.34295,0.0231 7.19073,0.12296 2.81781,0.0725 5.48565,0.86492 8.10669,1.82897 1.68103,0.674 3.40178,1.26131 5.02122,2.07964 0.76446,0.38628 1.65057,0.90572 2.39258,1.3299 2.59631,1.47428 4.97654,3.28093 7.36151,5.06655 2.26978,1.70709 4.4673,3.5033 6.76348,5.17606 2.16067,1.55353 4.47981,2.83162 6.90428,3.91607 2.59177,1.18567 5.30777,2.04185 8.02272,2.88901 2.31286,0.69495 4.67846,1.19457 7.05711,1.60205 0.30153,0.0543 0.60307,0.10856 0.9046,0.16284 0,0 1.76173,-0.24734 1.76173,-0.24734 v 0 c -0.30766,-0.054 -0.61532,-0.10806 -0.92297,-0.16208 -2.38499,-0.38913 -4.75506,-0.88365 -7.07194,-1.57638 -2.72442,-0.83326 -5.45601,-1.66105 -8.04669,-2.86475 -2.41543,-1.08985 -4.74171,-2.34076 -6.90603,-3.88042 -2.29984,-1.665 -4.48903,-3.46769 -6.75678,-5.17451 -2.39503,-1.77902 -4.7804,-3.58251 -7.36272,-5.08706 -0.66188,-0.38174 -1.7039,-0.99372 -2.38661,-1.34415 -1.6211,-0.83207 -3.35053,-1.41553 -5.03806,-2.09274 -2.62116,-0.98228 -5.28869,-1.79871 -8.11343,-1.88345 -3.52174,-0.12018 -7.04578,-0.26934 -10.56958,-0.12172 -2.85796,0.11531 -5.71368,0.33237 -8.51964,0.91973 -2.78818,0.55931 -5.58683,1.06316 -8.38993,1.54196 -0.47176,0.0655 -0.9422,0.14135 -1.41529,0.19647 -0.47739,0.0556 -0.96135,0.0568 -1.43545,0.13566 -0.0836,0.0139 0.33134,0.0589 0.24662,0.0621 -1.36104,0.0507 -2.72498,-0.0942 -4.06406,-0.32392 -2.45389,-0.45686 -4.89956,-0.9693 -7.244786,-1.84593 -2.202744,-0.78705 -4.397163,-1.61392 -6.454082,-2.73961 -1.989717,-1.09952 -3.877757,-2.34926 -5.752092,-3.63446 -1.96428,-1.28897 -3.943225,-2.55932 -5.828104,-3.96421 -1.763382,-1.18745 -3.514127,-2.39102 -5.227674,-3.64983 -2.177944,-1.69174 -4.282109,-3.46353 -6.261759,-5.3871 -2.389957,-2.17318 -4.786469,-4.34016 -7.215878,-6.46907 -2.337488,-2.02759 -4.80563,-3.88763 -7.273925,-5.75217 -2.393429,-1.84519 -4.784489,-3.71945 -7.513595,-5.05581 -2.940762,-1.52937 -5.807908,-3.22359 -8.877342,-4.48757 -2.528795,-1.06301 -5.10876,-2.09085 -7.41066,-3.60202 0,0 -1.83977,0.18247 -1.83977,0.18247 z" />
    <path
       style="fill:#ffaaaa;fill-opacity:0.67133;stroke-width:0.665001;paint-order:markers fill stroke;image-rendering:crisp-edges"
       id="path6394"
       d="m 21.438354,178.45929 c 2.39329,-1.46246 4.99891,-2.53109 7.5771,-3.61666 3.07062,-1.25038 5.93946,-2.93064 8.867,-4.47444 2.71533,-1.34591 5.12348,-3.18825 7.51586,-5.02609 2.4637,-1.8659 4.9216,-3.73398 7.27084,-5.7431 2.44094,-2.10992 4.8252,-4.28505 7.20345,-6.46519 1.97708,-1.91762 4.06628,-3.70102 6.22919,-5.40313 1.69131,-1.28923 3.44725,-2.48329 5.215,-3.66379 1.90136,-1.37698 3.85829,-2.67339 5.81666,-3.96684 1.87959,-1.29155 3.78507,-2.53204 5.77584,-3.64519 2.05105,-1.14899 4.25142,-1.97467 6.45745,-2.7678 2.34905,-0.87943 4.79519,-1.41142 7.253618,-1.87269 3.33293,-0.58545 6.745138,-0.41265 10.079678,0.0659 2.80246,0.48309 5.60039,0.99013 8.38813,1.55226 2.80484,0.58039 5.6603,0.78269 8.51577,0.89285 2.64315,0.11634 4.34295,-0.0231 7.19073,-0.12296 2.81781,-0.0725 5.48565,-0.86492 8.10669,-1.82897 1.68103,-0.674 3.40178,-1.26131 5.02122,-2.07964 0.76446,-0.38628 1.65057,-0.90572 2.39258,-1.3299 2.59631,-1.47428 4.97654,-3.28093 7.36151,-5.06655 2.26978,-1.70709 4.4673,-3.5033 6.76348,-5.17606 2.16067,-1.55353 4.47981,-2.83162 6.90428,-3.91607 2.59177,-1.18567 5.30777,-2.04185 8.02272,-2.88901 2.31286,-0.69495 4.67846,-1.19457 7.05711,-1.60205 0.30153,-0.0543 0.60307,-0.10856 0.9046,-0.16284 37.70751,-9.45107 1.1308,-2.21305 -14.27987,4.85055 -2.41543,1.08985 -4.74171,2.34076 -6.90603,3.88042 -2.29984,1.665 -4.48903,3.46769 -6.75678,5.17451 -2.39503,1.77902 -4.7804,3.58251 -7.36272,5.08706 -0.66188,0.38174 -1.7039,0.99372 -2.38661,1.34415 -1.6211,0.83207 -3.35053,1.41553 -5.03806,2.09274 -2.62116,0.98228 -5.28869,1.79871 -8.11343,1.88345 -3.52174,0.12018 -7.04578,0.26934 -10.56958,0.12172 -2.85796,-0.11531 -5.71368,-0.33237 -8.51964,-0.91973 -2.78819,-0.55931 -5.58684,-1.06316 -8.38994,-1.54196 -0.47176,-0.0655 -0.9422,-0.14135 -1.41529,-0.19647 -0.47739,-0.0556 -0.96135,-0.0568 -1.43545,-0.13566 -0.0836,-0.0139 0.33134,-0.0589 0.24662,-0.0621 -1.36104,-0.0507 -2.724978,0.0942 -4.064058,0.32392 -2.45389,0.45686 -4.899558,0.9693 -7.244778,1.84593 -2.20275,0.78705 -4.39717,1.61392 -6.45409,2.73961 -1.98971,1.09952 -3.87775,2.34926 -5.75209,3.63446 -1.96428,1.28897 -3.94322,2.55932 -5.8281,3.96421 -1.76338,1.18745 -3.51413,2.39102 -5.22768,3.64983 -2.17794,1.69174 -4.28211,3.46353 -6.26176,5.3871 -2.38995,2.17318 -4.78646,4.34016 -7.21587,6.46907 -2.33749,2.02759 -4.80564,3.88763 -7.27393,5.75217 -2.39343,1.84519 -4.78449,3.71945 -7.5136,5.05581 -2.94076,1.52937 -5.8079,3.22359 -8.87734,4.48757 -2.52879,1.06301 -5.10876,2.09085 -7.41066,3.60202 l -1.83977,-0.18247 z"
       sodipodi:nodetypes="cccccccccccccccccscccccccccccsccccccsccccccccccccccc" />
  </g>
</svg>
